<?xml version="1.0" encoding="UTF-8" standalone="no"?>
<!-- Created with Inkscape (http://www.inkscape.org/) -->
<svg
   xmlns:dc="http://purl.org/dc/elements/1.1/"
   xmlns:cc="http://creativecommons.org/ns#"
   xmlns:rdf="http://www.w3.org/1999/02/22-rdf-syntax-ns#"
   xmlns:svg="http://www.w3.org/2000/svg"
   xmlns="http://www.w3.org/2000/svg"
   xmlns:sodipodi="http://sodipodi.sourceforge.net/DTD/sodipodi-0.dtd"
   xmlns:inkscape="http://www.inkscape.org/namespaces/inkscape"
   width="744.09448819"
   height="1052.3622047"
   id="svg2"
   sodipodi:version="0.32"
   inkscape:version="0.46"
   sodipodi:docname="foreningen-fri-kultur-programvara-otp.svg"
   inkscape:output_extension="org.inkscape.output.svg.inkscape">
  <defs
     id="defs4">
    <inkscape:path-effect
       effect="freehand_shape"
       id="path-effect9528"
       pattern="M 0,0 0,10 100,5 z" />
    <inkscape:path-effect
       effect="freehand_shape"
       id="path-effect9524"
       pattern="M 0,0 0,10 100,5 z" />
    <inkscape:perspective
       sodipodi:type="inkscape:persp3d"
       inkscape:vp_x="0 : 526.18109 : 1"
       inkscape:vp_y="0 : 1000 : 0"
       inkscape:vp_z="744.09448 : 526.18109 : 1"
       inkscape:persp3d-origin="372.04724 : 350.78739 : 1"
       id="perspective10" />
    <inkscape:perspective
       id="perspective9510"
       inkscape:persp3d-origin="0.5 : 0.33333333 : 1"
       inkscape:vp_z="1 : 0.5 : 1"
       inkscape:vp_y="0 : 1000 : 0"
       inkscape:vp_x="0 : 0.5 : 1"
       sodipodi:type="inkscape:persp3d" />
    <inkscape:perspective
       id="perspective10407"
       inkscape:persp3d-origin="0.5 : 0.33333333 : 1"
       inkscape:vp_z="1 : 0.5 : 1"
       inkscape:vp_y="0 : 1000 : 0"
       inkscape:vp_x="0 : 0.5 : 1"
       sodipodi:type="inkscape:persp3d" />
    <inkscape:perspective
       id="perspective10435"
       inkscape:persp3d-origin="0.5 : 0.33333333 : 1"
       inkscape:vp_z="1 : 0.5 : 1"
       inkscape:vp_y="0 : 1000 : 0"
       inkscape:vp_x="0 : 0.5 : 1"
       sodipodi:type="inkscape:persp3d" />
  </defs>
  <sodipodi:namedview
     id="base"
     pagecolor="#ffffff"
     bordercolor="#666666"
     borderopacity="1.0"
     inkscape:pageopacity="0.0"
     inkscape:pageshadow="2"
     inkscape:zoom="1"
     inkscape:cx="469.02708"
     inkscape:cy="662.80778"
     inkscape:document-units="px"
     inkscape:current-layer="layer1"
     showgrid="false"
     inkscape:window-width="1390"
     inkscape:window-height="823"
     inkscape:window-x="0"
     inkscape:window-y="25" />
  <metadata
     id="metadata7">
    <rdf:RDF>
      <cc:Work
         rdf:about="">
        <dc:format>image/svg+xml</dc:format>
        <dc:type
           rdf:resource="http://purl.org/dc/dcmitype/StillImage" />
        <dc:title />
      </cc:Work>
    </rdf:RDF>
  </metadata>
  <g
     inkscape:label="Layer 1"
     inkscape:groupmode="layer"
     id="layer1">
    <rect
       style="color:#000000;fill:#ffffff;fill-opacity:1;fill-rule:nonzero;stroke:none;stroke-width:1;marker:none;visibility:visible;display:inline;overflow:visible;enable-background:accumulate"
       id="rect10459"
       width="584.87781"
       height="156.2706"
       x="299.71277"
       y="312.02139"
       rx="3.8187079"
       ry="3.8375039" />
    <path
       style="stroke-width:2;fill:none;stroke:#4e9a06;stroke-miterlimit:4;stroke-dasharray:none"
       d="m 337.13841,380.61074 c 37.19911,6.40269 58.61288,21.05018 82.57997,33.84011 -9.18802,3.70081 -18.00173,10.02178 -26.5165,18.43528 -11.44478,-20.4574 -31.36877,-36.36035 -58.08377,-44.19417 l 2.0203,-8.08122 z"
       id="path9520"
       sodipodi:nodetypes="ccccc" />
    <path
       style="color:#000000;fill:none;fill-opacity:1;fill-rule:nonzero;stroke:#f57900;stroke-width:2;marker:none;visibility:visible;display:inline;overflow:visible;enable-background:accumulate;stroke-miterlimit:4;stroke-dasharray:none"
       d="m 357.19647,355.9689 c -2.74478,0.32243 -5.4146,1.53387 -7.4544,3.45619 -1.69998,1.72051 -2.84759,3.98552 -3.21331,6.41392 -0.49502,2.50637 -0.19622,5.1434 0.83246,7.46993 1.38958,3.39743 4.50569,5.8938 7.93369,6.79021 2.58244,0.61749 5.34776,0.55038 7.82323,-0.47997 2.36652,-0.86413 4.37138,-2.64083 5.80208,-4.74119 1.24519,-1.96564 1.9236,-4.31512 1.91966,-6.65813 -0.20992,-3.70191 -1.91058,-7.35924 -4.87562,-9.53552 -2.48928,-1.89384 -5.68621,-2.84912 -8.76779,-2.71544 z"
       id="path9582" />
    <path
       style="stroke-width:2;fill:none;stroke:#3465a4;stroke-miterlimit:4;stroke-dasharray:none"
       d="m 380.62041,344.28573 c 0.0529,20.16606 -13.9209,60.35351 -37.67362,89.35802 l 5.3033,4.54568 c 21.70027,-21.9164 40.76415,-42.74086 47.22463,-80.55966 l -14.85431,-13.34404 z"
       id="path9518"
       sodipodi:nodetypes="ccccc" />
    <path
       style="font-size:41.22620392px;font-style:normal;font-variant:normal;font-weight:normal;font-stretch:normal;line-height:89.99999762%;fill:#4e9a06;fill-opacity:1;stroke:none;font-family:Helvetica Neue LT Std;-inkscape-font-specification:Helvetica Neue LT Std"
       d="M 461.14063,365.34656 L 461.14063,368.44658 L 447.02951,368.44658 L 447.02951,384.22849 L 443.82884,384.22849 L 443.82884,354.17442 L 462.40882,354.17442 L 462.40882,357.27444 L 447.02951,357.27444 L 447.02951,365.34656 L 461.14063,365.34656 M 486.70571,368.7284 C 487.68534,370.33881 488.17517,372.09683 488.1752,374.00245 C 488.17517,375.9081 487.68534,377.66612 486.70571,379.27651 C 485.72603,380.88691 484.39745,382.16181 482.71997,383.10121 C 481.04246,384.02719 479.21734,384.49017 477.24462,384.49017 C 475.25845,384.49017 473.41991,384.02719 471.729,383.10121 C 470.0515,382.16181 468.72292,380.88691 467.74326,379.27651 C 466.7636,377.66612 466.27377,375.9081 466.27378,374.00245 C 466.27377,372.09683 466.7636,370.33881 467.74326,368.7284 C 468.72292,367.1046 470.0515,365.8297 471.729,364.9037 C 473.41991,363.96432 475.25845,363.49462 477.24462,363.4946 C 479.21734,363.49462 481.04246,363.96432 482.71997,364.9037 C 484.39745,365.8297 485.72603,367.1046 486.70571,368.7284 M 469.49457,374.00245 C 469.49457,376.08256 470.2528,377.84729 471.76926,379.29664 C 473.28571,380.746 475.12425,381.47068 477.28488,381.47068 C 479.44548,381.47068 481.29072,380.746 482.82062,379.29664 C 484.35048,377.83387 485.11542,376.06914 485.11544,374.00245 C 485.11542,371.94921 484.35048,370.1979 482.82062,368.74853 C 481.29072,367.28577 479.44548,366.55438 477.28488,366.55436 C 475.12425,366.55438 473.28571,367.28577 471.76926,368.74853 C 470.2528,370.1979 469.49457,371.94921 469.49457,374.00245 M 473.62122,356.1069 C 474.27879,356.10693 474.83572,356.34178 475.29201,356.81145 C 475.7617,357.28118 475.99654,357.84481 475.99656,358.50237 C 475.99654,359.17339 475.7617,359.75045 475.29201,360.23355 C 474.83572,360.70327 474.27879,360.93812 473.62122,360.9381 C 472.95021,360.93812 472.37315,360.70327 471.89004,360.23355 C 471.42033,359.75045 471.18548,359.17339 471.18549,358.50237 C 471.18548,357.84481 471.42033,357.28118 471.89004,356.81145 C 472.37315,356.34178 472.95021,356.10693 473.62122,356.1069 M 480.84788,356.1069 C 481.49202,356.10693 482.04895,356.34178 482.51867,356.81145 C 482.98835,357.28118 483.2232,357.84481 483.22322,358.50237 C 483.2232,359.17339 482.98835,359.75045 482.51867,360.23355 C 482.04895,360.70327 481.49202,360.93812 480.84788,360.9381 C 480.16345,360.93812 479.58639,360.70327 479.1167,360.23355 C 478.64699,359.75045 478.41214,359.17339 478.41215,358.50237 C 478.41214,357.84481 478.64699,357.28118 479.1167,356.81145 C 479.58639,356.34178 480.16345,356.10693 480.84788,356.1069 M 496.1668,366.81605 C 497.60273,365.20567 499.24668,364.07168 501.09864,363.41408 L 505.10451,366.21215 C 503.95038,366.21217 502.90362,366.33295 501.96423,366.57449 C 501.02482,366.80265 500.25318,367.09789 499.64929,367.46021 C 499.04538,367.80915 498.51529,368.23188 498.05902,368.7284 C 497.60273,369.22495 497.26052,369.70136 497.03239,370.15763 C 496.80424,370.61392 496.61636,371.10375 496.46875,371.62712 C 496.33454,372.13709 496.24731,372.5464 496.20706,372.85505 C 496.18021,373.16372 496.16679,373.45896 496.1668,373.74076 L 496.1668,384.22849 L 493.02652,384.22849 L 493.02652,369.81542 C 493.02652,368.80893 492.93258,367.66824 492.7447,366.39332 C 492.57024,365.11844 492.36223,364.24614 492.12067,363.77642 L 495.64342,363.77642 C 495.99233,364.74268 496.16679,365.75589 496.1668,366.81605 M 510.45909,371.70764 L 523.24162,371.70764 C 522.81217,370.17777 522.00026,368.93642 520.8059,367.98359 C 519.62492,367.03079 518.30977,366.55438 516.86042,366.55436 C 515.43789,366.55438 514.12944,367.03079 512.93507,367.98359 C 511.75411,368.93642 510.92878,370.17777 510.45909,371.70764 M 510.09675,374.68687 C 510.25778,376.61936 510.98917,378.22976 512.29091,379.51807 C 513.59264,380.79297 515.08897,381.43042 516.7799,381.43042 C 518.10847,381.43042 519.3431,381.09492 520.48382,380.42392 C 521.6245,379.7395 522.58403,378.73972 523.3624,377.42455 L 526.10008,378.89404 C 525.57668,379.82002 524.96607,380.63864 524.26825,381.3499 C 523.5704,382.04774 522.89269,382.59125 522.23513,382.98043 C 521.57753,383.36961 520.8864,383.68498 520.16174,383.92654 C 519.43704,384.1681 518.81301,384.32242 518.28965,384.38952 C 517.77968,384.45662 517.27643,384.49017 516.7799,384.49017 C 514.95477,384.49017 513.28398,384.01377 511.76753,383.06095 C 510.25107,382.10813 509.0634,380.83323 508.20453,379.23625 C 507.35907,377.62586 506.93634,375.88126 506.93634,374.00245 C 506.93634,372.13709 507.37249,370.40591 508.24479,368.80892 C 509.11708,367.19854 510.31817,365.91022 511.84805,364.94396 C 513.37792,363.97774 515.04871,363.49462 516.86042,363.4946 C 518.59158,363.49462 520.18856,363.93077 521.65136,364.80305 C 523.11412,365.67537 524.28836,366.84962 525.1741,368.3258 C 526.0598,369.78859 526.57647,371.39228 526.72411,373.13686 L 526.80463,374.68687 L 510.09675,374.68687 M 534.29299,363.77642 C 534.52112,364.51454 534.66203,365.10502 534.71572,365.54786 C 534.78281,365.99074 534.81636,366.71542 534.81637,367.7219 C 535.5813,366.5678 536.52741,365.57472 537.65469,364.74266 C 538.78196,363.91064 539.86898,363.49462 540.91575,363.4946 C 542.04302,363.49462 543.04951,363.72276 543.93525,364.17902 C 544.82095,364.6219 545.53221,365.23251 546.06903,366.01085 C 546.60581,366.78923 547.00841,367.66824 547.27682,368.64788 C 547.54521,369.61413 547.67941,370.64747 547.67942,371.7479 L 547.67942,384.22849 L 544.47876,384.22849 L 544.47876,371.7479 C 544.47874,371.13059 544.41835,370.54011 544.29759,369.97646 C 544.19021,369.41283 544.00904,368.86261 543.75408,368.3258 C 543.49908,367.7756 543.12332,367.33945 542.6268,367.01735 C 542.13025,366.68187 541.53306,366.51412 540.83523,366.5141 C 539.96292,366.51412 539.04365,366.9704 538.07742,367.88294 C 537.11118,368.78209 536.32611,369.82214 535.72221,371.00309 C 535.11831,372.17064 534.81636,373.17043 534.81637,374.00245 L 534.81637,384.22849 L 531.63583,384.22849 L 531.63583,369.81542 C 531.63583,368.78209 531.5486,367.63469 531.37414,366.37319 C 531.2131,365.09831 530.99838,364.23272 530.72998,363.77642 L 534.29299,363.77642 M 555.00674,357.15366 C 555.63747,357.15369 556.17427,357.36841 556.61713,357.79782 C 557.07341,358.22728 557.30155,358.75066 557.30155,359.36796 C 557.30155,359.97188 557.07341,360.48184 556.61713,360.89784 C 556.17427,361.31388 555.63747,361.52189 555.00674,361.52186 C 554.34915,361.52189 553.79893,361.31388 553.35608,360.89784 C 552.91322,360.48184 552.69179,359.97188 552.69179,359.36796 C 552.69179,358.75066 552.91322,358.22728 553.35608,357.79782 C 553.81235,357.36841 554.36257,357.15369 555.00674,357.15366 M 556.55674,384.22849 L 553.37621,384.22849 L 553.37621,363.81668 L 556.55674,363.81668 L 556.55674,384.22849 M 564.81004,363.77642 C 565.03817,364.51454 565.17908,365.10502 565.23277,365.54786 C 565.29986,365.99074 565.33341,366.71542 565.33342,367.7219 C 566.09835,366.5678 567.04446,365.57472 568.17174,364.74266 C 569.29901,363.91064 570.38603,363.49462 571.4328,363.4946 C 572.56007,363.49462 573.56657,363.72276 574.4523,364.17902 C 575.338,364.6219 576.04926,365.23251 576.58608,366.01085 C 577.12286,366.78923 577.52546,367.66824 577.79388,368.64788 C 578.06226,369.61413 578.19646,370.64747 578.19648,371.7479 L 578.19648,384.22849 L 574.99581,384.22849 L 574.99581,371.7479 C 574.99579,371.13059 574.9354,370.54011 574.81464,369.97646 C 574.70726,369.41283 574.52609,368.86261 574.27113,368.3258 C 574.01613,367.7756 573.64038,367.33945 573.14385,367.01735 C 572.6473,366.68187 572.05011,366.51412 571.35228,366.5141 C 570.47997,366.51412 569.5607,366.9704 568.59447,367.88294 C 567.62823,368.78209 566.84316,369.82214 566.23927,371.00309 C 565.63536,372.17064 565.33341,373.17043 565.33342,374.00245 L 565.33342,384.22849 L 562.15288,384.22849 L 562.15288,369.81542 C 562.15288,368.78209 562.06565,367.63469 561.89119,366.37319 C 561.73015,365.09831 561.51543,364.23272 561.24703,363.77642 L 564.81004,363.77642 M 599.57452,366.97709 C 599.5745,366.03771 599.75567,364.98424 600.11802,363.81668 L 603.68103,363.81668 C 603.07711,364.93056 602.77516,366.94356 602.77518,369.85568 L 602.77518,383.58433 C 602.77516,385.43628 602.33901,387.16746 601.46673,388.77786 C 600.59441,390.40167 599.38662,391.6967 597.84334,392.66295 C 596.31344,393.62918 594.64266,394.1123 592.83097,394.11231 C 591.30108,394.1123 589.99263,393.82377 588.90562,393.24672 C 587.83202,392.68307 586.77855,391.91142 585.74522,390.93177 L 588.01991,388.81812 C 588.4896,389.26098 588.89891,389.61661 589.24783,389.88501 C 589.61017,390.1534 590.12012,390.41509 590.77771,390.67008 C 591.4487,390.93847 592.14654,391.07267 592.87123,391.07268 C 594.6695,391.07267 596.23292,390.34799 597.56152,388.89864 C 598.9035,387.44928 599.5745,385.67784 599.57452,383.58433 L 599.57452,381.20899 C 598.74246,382.20207 597.70912,383.00727 596.4745,383.62459 C 595.25327,384.22849 594.05218,384.53043 592.87123,384.53043 C 591.0461,384.53043 589.37532,384.05403 587.85887,383.10121 C 586.3424,382.13497 585.15473,380.85336 584.29586,379.25638 C 583.4504,377.64599 583.02767,375.9081 583.02767,374.04271 C 583.02767,372.17735 583.4504,370.44617 584.29586,368.84918 C 585.15473,367.2388 586.3424,365.95719 587.85887,365.00435 C 589.37532,364.03813 591.0461,363.55501 592.87123,363.55499 C 594.03876,363.55501 595.23314,363.87709 596.45437,364.52123 C 597.67557,365.15199 598.71562,365.97061 599.57452,366.97709 M 597.46087,379.35703 C 598.81627,377.89426 599.49398,376.12282 599.494,374.04271 C 599.49398,371.96263 598.81627,370.1979 597.46087,368.74853 C 596.11885,367.28577 594.54872,366.55438 592.75045,366.55436 C 590.95216,366.55438 589.38203,367.28577 588.04004,368.74853 C 586.71145,370.1979 586.04716,371.96263 586.04717,374.04271 C 586.04716,376.13624 586.71145,377.90768 588.04004,379.35703 C 589.38203,380.80639 590.95216,381.53107 592.75045,381.53107 C 594.54872,381.53107 596.11885,380.80639 597.46087,379.35703 M 611.02847,371.70764 L 623.81101,371.70764 C 623.38156,370.17777 622.56965,368.93642 621.37529,367.98359 C 620.19431,367.03079 618.87915,366.55438 617.42981,366.55436 C 616.00728,366.55438 614.69883,367.03079 613.50446,367.98359 C 612.3235,368.93642 611.49817,370.17777 611.02847,371.70764 M 610.66614,374.68687 C 610.82717,376.61936 611.55856,378.22976 612.8603,379.51807 C 614.16203,380.79297 615.65836,381.43042 617.34929,381.43042 C 618.67785,381.43042 619.91249,381.09492 621.05321,380.42392 C 622.19389,379.7395 623.15342,378.73972 623.93179,377.42455 L 626.66947,378.89404 C 626.14607,379.82002 625.53546,380.63864 624.83764,381.3499 C 624.13978,382.04774 623.46208,382.59125 622.80451,382.98043 C 622.14692,383.36961 621.45579,383.68498 620.73113,383.92654 C 620.00643,384.1681 619.3824,384.32242 618.85904,384.38952 C 618.34907,384.45662 617.84582,384.49017 617.34929,384.49017 C 615.52416,384.49017 613.85337,384.01377 612.33692,383.06095 C 610.82046,382.10813 609.63279,380.83323 608.77392,379.23625 C 607.92846,377.62586 607.50573,375.88126 607.50573,374.00245 C 607.50573,372.13709 607.94187,370.40591 608.81418,368.80892 C 609.68647,367.19854 610.88756,365.91022 612.41744,364.94396 C 613.94731,363.97774 615.6181,363.49462 617.42981,363.4946 C 619.16097,363.49462 620.75795,363.93077 622.22074,364.80305 C 623.68351,365.67537 624.85775,366.84962 625.74349,368.3258 C 626.62919,369.78859 627.14586,371.39228 627.2935,373.13686 L 627.37402,374.68687 L 610.66614,374.68687 M 634.86238,363.77642 C 635.09052,364.51454 635.23143,365.10502 635.28511,365.54786 C 635.35221,365.99074 635.38576,366.71542 635.38576,367.7219 C 636.15069,366.5678 637.0968,365.57472 638.22409,364.74266 C 639.35136,363.91064 640.43838,363.49462 641.48515,363.4946 C 642.61241,363.49462 643.61891,363.72276 644.50464,364.17902 C 645.39035,364.6219 646.10161,365.23251 646.63842,366.01085 C 647.1752,366.78923 647.5778,367.66824 647.84622,368.64788 C 648.1146,369.61413 648.2488,370.64747 648.24882,371.7479 L 648.24882,384.22849 L 645.04815,384.22849 L 645.04815,371.7479 C 645.04814,371.13059 644.98775,370.54011 644.86698,369.97646 C 644.75961,369.41283 644.57844,368.86261 644.32347,368.3258 C 644.06848,367.7756 643.69272,367.33945 643.1962,367.01735 C 642.69964,366.68187 642.10245,366.51412 641.40463,366.5141 C 640.53232,366.51412 639.61305,366.9704 638.64682,367.88294 C 637.68057,368.78209 636.8955,369.82214 636.29161,371.00309 C 635.68771,372.17064 635.38576,373.17043 635.38576,374.00245 L 635.38576,384.22849 L 632.20523,384.22849 L 632.20523,369.81542 C 632.20522,368.78209 632.11799,367.63469 631.94354,366.37319 C 631.78249,365.09831 631.56777,364.23272 631.29938,363.77642 L 634.86238,363.77642 M 668.72101,366.89657 L 667.00996,366.89657 L 667.00996,363.81668 L 668.72101,363.81668 L 668.72101,362.76992 C 668.72101,360.50197 669.49937,358.55607 671.05609,356.93223 C 672.6128,355.29502 674.51173,354.4764 676.75287,354.47637 L 677.45742,354.47637 L 677.45742,356.97249 L 676.75287,356.97249 C 675.5048,356.97252 674.38424,357.55629 673.39117,358.7238 C 672.4115,359.89136 671.92167,361.24007 671.92168,362.76992 L 671.92168,363.81668 L 677.73924,363.81668 L 676.67235,366.89657 L 671.92168,366.89657 L 671.92168,384.22849 L 668.72101,384.22849 L 668.72101,366.89657 M 683.61719,366.81605 C 685.05312,365.20567 686.69707,364.07168 688.54904,363.41408 L 692.5549,366.21215 C 691.40077,366.21217 690.35401,366.33295 689.41463,366.57449 C 688.47522,366.80265 687.70357,367.09789 687.09968,367.46021 C 686.49577,367.80915 685.96568,368.23188 685.50941,368.7284 C 685.05312,369.22495 684.71091,369.70136 684.48278,370.15763 C 684.25464,370.61392 684.06676,371.10375 683.91914,371.62712 C 683.78494,372.13709 683.69771,372.5464 683.65745,372.85505 C 683.63061,373.16372 683.61719,373.45896 683.61719,373.74076 L 683.61719,384.22849 L 680.47692,384.22849 L 680.47692,369.81542 C 680.47691,368.80893 680.38297,367.66824 680.1951,366.39332 C 680.02063,365.11844 679.81262,364.24614 679.57107,363.77642 L 683.09381,363.77642 C 683.44273,364.74268 683.61719,365.75589 683.61719,366.81605 M 696.88286,357.15366 C 697.51359,357.15369 698.05039,357.36841 698.49326,357.79782 C 698.94953,358.22728 699.17767,358.75066 699.17768,359.36796 C 699.17767,359.97188 698.94953,360.48184 698.49326,360.89784 C 698.05039,361.31388 697.51359,361.52189 696.88286,361.52186 C 696.22527,361.52189 695.67506,361.31388 695.2322,360.89784 C 694.78934,360.48184 694.56791,359.97188 694.56791,359.36796 C 694.56791,358.75066 694.78934,358.22728 695.2322,357.79782 C 695.68848,357.36841 696.23869,357.15369 696.88286,357.15366 M 698.43287,384.22849 L 695.25233,384.22849 L 695.25233,363.81668 L 698.43287,363.81668 L 698.43287,384.22849 M 722.00507,384.22849 L 718.8044,384.22849 L 718.8044,354.17442 L 722.00507,354.17442 L 722.00507,370.64075 L 729.89602,363.77642 L 734.66683,363.77642 L 725.3869,371.84855 L 736.51878,384.22849 L 732.39214,384.22849 L 723.05183,373.82128 L 722.00507,374.72713 L 722.00507,384.22849 M 739.33699,363.81668 L 742.53766,363.81668 L 742.53766,376.25701 C 742.53765,377.74664 742.99393,378.98798 743.9065,379.98106 C 744.81905,380.97414 745.91949,381.47068 747.20782,381.47068 C 748.52296,381.47068 749.65695,380.97414 750.60978,379.98106 C 751.57601,378.97456 752.05913,377.73322 752.05914,376.25701 L 752.05914,363.81668 L 755.23968,363.81668 L 755.23968,376.25701 C 755.23966,378.525 754.46801,380.47089 752.92473,382.09471 C 751.39484,383.71853 749.51604,384.53043 747.28834,384.53043 C 745.06061,384.53043 743.1751,383.71853 741.63181,382.09471 C 740.10193,380.47089 739.33699,378.525 739.33699,376.25701 L 739.33699,363.81668 M 764.117,384.22849 L 760.91634,384.22849 L 760.91634,354.17442 L 764.117,354.17442 L 764.117,384.22849 M 772.97418,384.18823 L 769.77352,384.18823 L 769.77352,366.81605 L 768.02221,366.81605 L 768.02221,363.81668 L 769.77352,363.81668 L 769.77352,359.30757 L 772.97418,359.30757 L 772.97418,363.81668 L 778.79175,363.81668 L 777.72486,366.81605 L 772.97418,366.81605 L 772.97418,384.18823 M 781.52944,363.81668 L 784.7301,363.81668 L 784.7301,376.25701 C 784.7301,377.74664 785.18638,378.98798 786.09894,379.98106 C 787.01149,380.97414 788.11193,381.47068 789.40026,381.47068 C 790.71541,381.47068 791.84939,380.97414 792.80223,379.98106 C 793.76845,378.97456 794.25157,377.73322 794.25158,376.25701 L 794.25158,363.81668 L 797.43212,363.81668 L 797.43212,376.25701 C 797.4321,378.525 796.66045,380.47089 795.11717,382.09471 C 793.58728,383.71853 791.70848,384.53043 789.48078,384.53043 C 787.25305,384.53043 785.36755,383.71853 783.82425,382.09471 C 782.29437,380.47089 781.52943,378.525 781.52944,376.25701 L 781.52944,363.81668 M 806.24906,366.81605 C 807.68499,365.20567 809.32894,364.07168 811.1809,363.41408 L 815.18677,366.21215 C 814.03264,366.21217 812.98588,366.33295 812.04649,366.57449 C 811.10708,366.80265 810.33544,367.09789 809.73155,367.46021 C 809.12764,367.80915 808.59755,368.23188 808.14128,368.7284 C 807.68499,369.22495 807.34278,369.70136 807.11465,370.15763 C 806.8865,370.61392 806.69862,371.10375 806.55101,371.62712 C 806.4168,372.13709 806.32957,372.5464 806.28932,372.85505 C 806.26247,373.16372 806.24905,373.45896 806.24906,373.74076 L 806.24906,384.22849 L 803.10878,384.22849 L 803.10878,369.81542 C 803.10878,368.80893 803.01484,367.66824 802.82696,366.39332 C 802.6525,365.11844 802.44449,364.24614 802.20293,363.77642 L 805.72568,363.77642 C 806.07459,364.74268 806.24905,365.75589 806.24906,366.81605 M 463.35493,405.83198 C 464.33456,407.44239 464.82439,409.20041 464.82442,411.10604 C 464.82439,413.01168 464.33456,414.7697 463.35493,416.38009 C 462.37525,417.99049 461.04667,419.26539 459.36919,420.20479 C 457.69167,421.13077 455.86656,421.59376 453.89384,421.59376 C 451.90767,421.59376 450.06913,421.13077 448.37822,420.20479 C 446.70072,419.26539 445.37214,417.99049 444.39248,416.38009 C 443.41282,414.7697 442.92299,413.01168 442.92299,411.10604 C 442.92299,409.20041 443.41282,407.44239 444.39248,405.83198 C 445.37214,404.20818 446.70072,402.93328 448.37822,402.00728 C 450.06913,401.06791 451.90767,400.59821 453.89384,400.59819 C 455.86656,400.59821 457.69167,401.06791 459.36919,402.00728 C 461.04667,402.93328 462.37525,404.20818 463.35493,405.83198 M 446.14379,411.10604 C 446.14379,413.18614 446.90202,414.95087 448.41848,416.40022 C 449.93493,417.84958 451.77347,418.57426 453.93409,418.57426 C 456.0947,418.57426 457.93994,417.84958 459.46984,416.40022 C 460.9997,414.93745 461.76464,413.17272 461.76466,411.10604 C 461.76464,409.05279 460.9997,407.30148 459.46984,405.85211 C 457.93994,404.38935 456.0947,403.65796 453.93409,403.65794 C 451.77347,403.65796 449.93493,404.38935 448.41848,405.85211 C 446.90202,407.30148 446.14379,409.05279 446.14379,411.10604 M 484.59206,414.52813 L 487.34987,415.99762 C 485.18923,419.72838 482.27709,421.59376 478.61345,421.59376 C 476.78832,421.59376 475.11754,421.11735 473.60109,420.16453 C 472.08462,419.21171 470.89696,417.93681 470.03808,416.33983 C 469.19262,414.72944 468.76989,412.98484 468.76989,411.10604 C 468.76989,409.24067 469.19262,407.50949 470.03808,405.9125 C 470.89696,404.30212 472.08462,403.0138 473.60109,402.04754 C 475.11754,401.08133 476.78832,400.59821 478.61345,400.59819 C 479.36496,400.59821 480.09635,400.69215 480.80762,400.88001 C 481.51887,401.05449 482.12276,401.2625 482.61932,401.50404 C 483.12926,401.73219 483.63922,402.05427 484.1492,402.47027 C 484.67256,402.88631 485.07516,403.22852 485.357,403.4969 C 485.6388,403.76532 485.94746,404.13437 486.28298,404.60405 C 486.63188,405.07377 486.8466,405.37572 486.92714,405.5099 C 487.00764,405.64412 487.14855,405.87226 487.34987,406.19432 L 484.59206,407.74433 C 484.39074,407.382 484.20286,407.08005 484.02842,406.83848 C 483.86736,406.58352 483.59225,406.24131 483.20309,405.81185 C 482.82731,405.38243 482.43813,405.03351 482.03555,404.76509 C 481.64636,404.48329 481.14982,404.24173 480.54593,404.04041 C 479.94202,403.82571 479.29786,403.71835 478.61345,403.71833 C 476.78832,403.71835 475.20477,404.4229 473.86278,405.83198 C 472.53419,407.24109 471.8699,408.98569 471.86991,411.06578 C 471.8699,413.14588 472.5409,414.91061 473.88291,416.35996 C 475.23832,417.80932 476.81516,418.534 478.61345,418.534 C 479.3247,418.534 480.00241,418.41322 480.64658,418.17166 C 481.29073,417.9301 481.8074,417.67512 482.19659,417.40672 C 482.58575,417.13833 482.97493,416.76928 483.36413,416.29957 C 483.76671,415.81646 484.02169,415.48767 484.12907,415.3132 C 484.23641,415.13875 484.39074,414.87706 484.59206,414.52813 M 492.06028,421.33207 L 492.06028,391.278 L 495.26095,391.278 L 495.26095,404.48327 C 496.07956,403.35601 497.02567,402.43003 498.09928,401.70533 C 499.18629,400.96726 500.25317,400.59821 501.29994,400.59819 C 502.42721,400.59821 503.43371,400.82635 504.31944,401.28261 C 505.20514,401.72548 505.9164,402.33609 506.45322,403.11443 C 506.99,403.89281 507.3926,404.77182 507.66102,405.75146 C 507.9294,406.71772 508.0636,407.75105 508.06362,408.85148 L 508.06362,421.33207 L 504.90321,421.33207 L 504.90321,408.85148 C 504.90319,408.23417 504.8428,407.64369 504.72204,407.08004 C 504.61467,406.51642 504.4335,405.9662 504.17853,405.42938 C 503.92354,404.87918 503.54778,404.44303 503.05125,404.12093 C 502.5547,403.78545 501.95751,403.6177 501.25968,403.61768 C 500.37395,403.6177 499.44797,404.06727 498.48175,404.96639 C 497.52892,405.86555 496.75056,406.90559 496.14667,408.08654 C 495.55618,409.25409 495.26094,410.26059 495.26095,411.10604 L 495.26095,421.33207 L 492.06028,421.33207 M 527.62996,400.88001 L 531.19297,400.88001 C 531.55531,402.02072 531.73648,403.07419 531.73648,404.04041 C 532.60877,403.03393 533.64882,402.2086 534.85663,401.56442 C 536.07784,400.92029 537.27892,400.59821 538.4599,400.59819 C 540.285,400.59821 541.94908,401.08133 543.45213,402.04754 C 544.96857,403.0138 546.14953,404.30212 546.99501,405.9125 C 547.85386,407.50949 548.2833,409.24067 548.28333,411.10604 C 548.2833,412.97142 547.85386,414.70931 546.99501,416.3197 C 546.14953,417.91668 544.96857,419.19829 543.45213,420.16453 C 541.94908,421.11735 540.285,421.59376 538.4599,421.59376 C 537.2655,421.59376 536.05771,421.29181 534.8365,420.68791 C 533.61527,420.07059 532.58193,419.26539 531.73648,418.27231 L 531.73648,430.3503 L 528.53581,430.3503 L 528.53581,406.87874 C 528.53581,405.85884 528.44858,404.71814 528.27412,403.45664 C 528.11308,402.19518 527.89836,401.33631 527.62996,400.88001 M 531.73648,411.10604 C 531.73648,413.19956 532.40076,414.971 533.72935,416.42035 C 535.07134,417.85629 536.64819,418.57426 538.4599,418.57426 C 540.24474,418.57426 541.80817,417.84958 543.15018,416.40022 C 544.49216,414.95087 545.16316,413.18614 545.16318,411.10604 C 545.16316,409.02595 544.49216,407.26122 543.15018,405.81185 C 541.80817,404.34909 540.24474,403.6177 538.4599,403.61768 C 536.64819,403.6177 535.07134,404.34909 533.72935,405.81185 C 532.40076,407.26122 531.73648,409.02595 531.73648,411.10604 M 556.23467,403.91963 C 557.6706,402.30925 559.31455,401.17527 561.16652,400.51767 L 565.17238,403.31573 C 564.01825,403.31575 562.97149,403.43653 562.0321,403.67807 C 561.09269,403.90623 560.32105,404.20147 559.71716,404.56379 C 559.11325,404.91273 558.58316,405.33546 558.12689,405.83198 C 557.6706,406.32854 557.32839,406.80494 557.10026,407.26121 C 556.87211,407.7175 556.68423,408.20733 556.53662,408.7307 C 556.40241,409.24067 556.31518,409.64998 556.27493,409.95863 C 556.24808,410.2673 556.23466,410.56254 556.23467,410.84435 L 556.23467,421.33207 L 553.09439,421.33207 L 553.09439,406.919 C 553.09439,405.91252 553.00045,404.77182 552.81257,403.4969 C 552.63811,402.22202 552.4301,401.34973 552.18854,400.88001 L 555.71129,400.88001 C 556.0602,401.84626 556.23466,402.85947 556.23467,403.91963 M 587.43614,405.83198 C 588.41578,407.44239 588.90561,409.20041 588.90563,411.10604 C 588.90561,413.01168 588.41578,414.7697 587.43614,416.38009 C 586.45646,417.99049 585.12788,419.26539 583.45041,420.20479 C 581.77289,421.13077 579.94777,421.59376 577.97505,421.59376 C 575.98888,421.59376 574.15034,421.13077 572.45943,420.20479 C 570.78193,419.26539 569.45335,417.99049 568.4737,416.38009 C 567.49404,414.7697 567.00421,413.01168 567.00421,411.10604 C 567.00421,409.20041 567.49404,407.44239 568.4737,405.83198 C 569.45335,404.20818 570.78193,402.93328 572.45943,402.00728 C 574.15034,401.06791 575.98888,400.59821 577.97505,400.59819 C 579.94777,400.59821 581.77289,401.06791 583.45041,402.00728 C 585.12788,402.93328 586.45646,404.20818 587.43614,405.83198 M 570.22501,411.10604 C 570.225,413.18614 570.98323,414.95087 572.49969,416.40022 C 574.01614,417.84958 575.85468,418.57426 578.01531,418.57426 C 580.17591,418.57426 582.02116,417.84958 583.55106,416.40022 C 585.08091,414.93745 585.84585,413.17272 585.84587,411.10604 C 585.84585,409.05279 585.08091,407.30148 583.55106,405.85211 C 582.02116,404.38935 580.17591,403.65796 578.01531,403.65794 C 575.85468,403.65796 574.01614,404.38935 572.49969,405.85211 C 570.98323,407.30148 570.225,409.05279 570.22501,411.10604 M 609.39796,404.08067 C 609.39794,403.14129 609.57911,402.08782 609.94147,400.92027 L 613.50447,400.92027 C 612.90055,402.03414 612.5986,404.04714 612.59862,406.95926 L 612.59862,420.68791 C 612.5986,422.53987 612.16245,424.27104 611.29017,425.88144 C 610.41786,427.50526 609.21006,428.80028 607.66678,429.76653 C 606.13688,430.73276 604.4661,431.21588 602.65441,431.21589 C 601.12452,431.21588 599.81608,430.92735 598.72907,430.3503 C 597.65546,429.78665 596.60199,429.015 595.56866,428.03535 L 597.84335,425.9217 C 598.31304,426.36456 598.72235,426.72019 599.07128,426.98859 C 599.43361,427.25699 599.94357,427.51868 600.60115,427.77366 C 601.27214,428.04206 601.96998,428.17625 602.69467,428.17626 C 604.49294,428.17625 606.05636,427.45158 607.38496,426.00222 C 608.72694,424.55286 609.39794,422.78142 609.39796,420.68791 L 609.39796,418.31257 C 608.5659,419.30565 607.53256,420.11085 606.29794,420.72817 C 605.07671,421.33207 603.87562,421.63402 602.69467,421.63402 C 600.86954,421.63402 599.19876,421.15761 597.68231,420.20479 C 596.16584,419.23855 594.97817,417.95694 594.1193,416.35996 C 593.27384,414.74957 592.85111,413.01168 592.85111,411.1463 C 592.85111,409.28093 593.27384,407.54975 594.1193,405.95276 C 594.97817,404.34238 596.16584,403.06077 597.68231,402.10793 C 599.19876,401.14172 600.86954,400.6586 602.69467,400.65858 C 603.8622,400.6586 605.05658,400.98068 606.27781,401.62481 C 607.49901,402.25557 608.53906,403.07419 609.39796,404.08067 M 607.28431,416.46061 C 608.63971,414.99784 609.31742,413.2264 609.31744,411.1463 C 609.31742,409.06621 608.63971,407.30148 607.28431,405.85211 C 605.94229,404.38935 604.37216,403.65796 602.57389,403.65794 C 600.7756,403.65796 599.20547,404.38935 597.86348,405.85211 C 596.53489,407.30148 595.8706,409.06621 595.87061,411.1463 C 595.8706,413.23982 596.53489,415.01126 597.86348,416.46061 C 599.20547,417.90997 600.7756,418.63465 602.57389,418.63465 C 604.37216,418.63465 605.94229,417.90997 607.28431,416.46061 M 621.37529,403.91963 C 622.81123,402.30925 624.45517,401.17527 626.30714,400.51767 L 630.31301,403.31573 C 629.15887,403.31575 628.11212,403.43653 627.17273,403.67807 C 626.23332,403.90623 625.46167,404.20147 624.85778,404.56379 C 624.25387,404.91273 623.72378,405.33546 623.26751,405.83198 C 622.81123,406.32854 622.46902,406.80494 622.24088,407.26121 C 622.01274,407.7175 621.82486,408.20733 621.67724,408.7307 C 621.54304,409.24067 621.45581,409.64998 621.41555,409.95863 C 621.38871,410.2673 621.37529,410.56254 621.37529,410.84435 L 621.37529,421.33207 L 618.23502,421.33207 L 618.23502,406.919 C 618.23501,405.91252 618.14107,404.77182 617.9532,403.4969 C 617.77874,402.22202 617.57073,401.34973 617.32917,400.88001 L 620.85192,400.88001 C 621.20083,401.84626 621.37529,402.85947 621.37529,403.91963 M 650.26181,421.33207 L 646.75919,421.33207 C 646.3029,420.31215 646.10831,419.37946 646.17542,418.534 C 644.08189,420.62752 641.78708,421.67428 639.29097,421.67428 C 638.11,421.67428 637.05654,421.49311 636.13056,421.13077 C 635.20458,420.76843 634.46648,420.29202 633.91627,419.70154 C 633.37946,419.11106 632.97015,418.48032 632.68834,417.80932 C 632.41993,417.12491 632.28573,416.43378 632.28574,415.73593 C 632.28573,415.01126 632.3998,414.35368 632.62795,413.76319 C 632.85608,413.1593 633.14461,412.64263 633.49354,412.21319 C 633.84245,411.77034 634.30544,411.38116 634.8825,411.04565 C 635.45956,410.69674 636.00978,410.41492 636.53316,410.20019 C 637.06996,409.98548 637.72082,409.7976 638.48577,409.63655 C 639.26412,409.47552 639.92841,409.36145 640.47864,409.29434 C 641.04227,409.21383 641.7334,409.15344 642.55203,409.11317 C 643.37063,409.07292 643.99466,409.05279 644.42412,409.05278 C 644.85354,409.03937 645.41718,409.03266 646.11503,409.03265 C 645.92714,407.35516 645.30982,406.02659 644.26308,405.04691 C 643.22972,404.06727 642.06219,403.57744 640.76046,403.57742 C 640.21023,403.57744 639.68014,403.66467 639.17019,403.83911 C 638.66022,404.00017 638.23749,404.20818 637.902,404.46314 C 637.57991,404.70472 637.26455,404.97312 636.95589,405.26834 C 636.66065,405.55018 636.43922,405.81187 636.2916,406.05341 C 636.14398,406.28157 636.00978,406.46274 635.889,406.59692 L 633.27211,404.98652 C 633.51366,404.6242 633.71496,404.33567 633.87601,404.12093 C 634.05046,403.90623 634.38596,403.54389 634.8825,403.03391 C 635.39246,402.52397 635.889,402.11466 636.37212,401.80598 C 636.86866,401.49734 637.51281,401.21553 638.3046,400.96053 C 639.09637,400.69215 639.91499,400.55795 640.76046,400.55793 C 641.84747,400.55795 642.89422,400.76596 643.90074,401.18196 C 644.92064,401.59799 645.82649,402.18847 646.61828,402.95339 C 647.42347,403.70493 648.07434,404.67117 648.57089,405.85211 C 649.06741,407.01966 649.3291,408.30798 649.35596,409.71707 L 649.35596,416.46061 C 649.35594,417.37318 649.44317,418.29244 649.61765,419.21842 C 649.79209,420.13098 650.00681,420.83553 650.26181,421.33207 M 639.29097,418.63465 C 640.60612,418.63465 641.90786,418.21192 643.19619,417.36646 C 644.48449,416.52101 645.47757,415.52122 646.17542,414.36709 L 646.17542,411.64955 C 645.04813,411.66298 644.03492,411.70324 643.1358,411.77033 C 642.25007,411.83744 641.30396,411.95822 640.29747,412.13267 C 639.29096,412.30713 638.45221,412.53527 637.78122,412.81709 C 637.11022,413.09891 636.55329,413.48809 636.11043,413.98462 C 635.66757,414.48117 635.44614,415.06494 635.44614,415.73593 C 635.44614,416.43378 635.76822,417.09136 636.41238,417.70867 C 637.05654,418.32599 638.01606,418.63465 639.29097,418.63465 M 658.31381,404.86574 C 658.31381,403.87268 658.28026,403.16142 658.21316,402.73196 C 658.15948,402.28912 658.01186,401.6718 657.7703,400.88001 L 654.2073,400.88001 C 654.47569,401.36315 654.69041,402.23544 654.85146,403.4969 C 655.02591,404.74498 655.11314,405.88568 655.11315,406.919 L 655.11315,421.33207 L 658.31381,421.33207 L 658.31381,411.10604 C 658.31381,410.18007 658.60234,409.11989 659.1794,407.9255 C 659.75645,406.73114 660.461,405.71793 661.29305,404.88587 C 662.12508,404.04043 662.8766,403.6177 663.54761,403.61768 C 664.13808,403.6177 664.64803,403.78545 665.07749,404.12093 C 665.52033,404.44303 665.84912,404.87918 666.06386,405.42938 C 666.29198,405.9662 666.45302,406.51642 666.54698,407.08004 C 666.6409,407.64369 666.68787,408.23417 666.68789,408.85148 L 666.68789,421.33207 L 669.84829,421.33207 L 669.84829,411.1463 C 669.84828,410.27401 670.12338,409.25409 670.67362,408.08654 C 671.23724,406.90559 671.94179,405.88568 672.78727,405.02678 C 673.64613,404.1545 674.43791,403.71835 675.16261,403.71833 C 675.75306,403.71835 676.26302,403.8861 676.69249,404.22158 C 677.1219,404.54368 677.44398,404.97983 677.65873,405.53003 C 677.87342,406.06685 678.02775,406.61707 678.12172,407.18069 C 678.22905,407.74434 678.28273,408.33482 678.28276,408.95213 L 678.28276,421.33207 L 681.42303,421.33207 L 681.42303,408.95213 C 681.423,408.10668 681.34919,407.29477 681.2016,406.5164 C 681.06737,405.72464 680.83923,404.97312 680.51718,404.26184 C 680.19508,403.53718 679.79919,402.91315 679.32951,402.38975 C 678.85979,401.86639 678.26931,401.45037 677.55808,401.1417 C 676.84679,400.81964 676.06172,400.6586 675.20287,400.65858 C 674.19635,400.6586 673.18314,401.05449 672.16324,401.84624 C 671.15672,402.63804 670.27771,403.64454 669.52621,404.86574 C 669.08334,403.57744 668.39221,402.55752 667.45282,401.80598 C 666.51341,401.04107 665.32574,400.6586 663.88982,400.65858 C 662.86989,400.6586 661.83655,401.06791 660.7898,401.8865 C 659.75645,402.69172 658.93113,403.6848 658.31381,404.86574 M 684.78473,400.88001 L 688.20683,400.88001 L 694.46725,413.80345 L 700.7478,400.88001 L 704.19003,400.88001 L 694.54777,421.63402 L 684.78473,400.88001 M 724.66223,421.33207 L 721.15962,421.33207 C 720.70332,420.31215 720.50873,419.37946 720.57585,418.534 C 718.48231,420.62752 716.1875,421.67428 713.69139,421.67428 C 712.51042,421.67428 711.45696,421.49311 710.53098,421.13077 C 709.605,420.76843 708.8669,420.29202 708.31669,419.70154 C 707.77988,419.11106 707.37057,418.48032 707.08876,417.80932 C 706.82036,417.12491 706.68616,416.43378 706.68616,415.73593 C 706.68616,415.01126 706.80023,414.35368 707.02837,413.76319 C 707.2565,413.1593 707.54503,412.64263 707.89396,412.21319 C 708.24287,411.77034 708.70586,411.38116 709.28293,411.04565 C 709.85998,410.69674 710.4102,410.41492 710.93358,410.20019 C 711.47038,409.98548 712.12125,409.7976 712.88619,409.63655 C 713.66454,409.47552 714.32883,409.36145 714.87906,409.29434 C 715.44269,409.21383 716.13382,409.15344 716.95245,409.11317 C 717.77106,409.07292 718.39508,409.05279 718.82454,409.05278 C 719.25396,409.03937 719.8176,409.03266 720.51546,409.03265 C 720.32756,407.35516 719.71024,406.02659 718.6635,405.04691 C 717.63015,404.06727 716.46261,403.57744 715.16088,403.57742 C 714.61065,403.57744 714.08056,403.66467 713.57061,403.83911 C 713.06064,404.00017 712.63791,404.20818 712.30242,404.46314 C 711.98034,404.70472 711.66497,404.97312 711.35631,405.26834 C 711.06107,405.55018 710.83964,405.81187 710.69202,406.05341 C 710.5444,406.28157 710.4102,406.46274 710.28942,406.59692 L 707.67253,404.98652 C 707.91408,404.6242 708.11538,404.33567 708.27643,404.12093 C 708.45088,403.90623 708.78638,403.54389 709.28293,403.03391 C 709.79288,402.52397 710.28942,402.11466 710.77254,401.80598 C 711.26908,401.49734 711.91324,401.21553 712.70502,400.96053 C 713.49679,400.69215 714.31541,400.55795 715.16088,400.55793 C 716.24789,400.55795 717.29465,400.76596 718.30116,401.18196 C 719.32106,401.59799 720.22691,402.18847 721.01871,402.95339 C 721.82389,403.70493 722.47476,404.67117 722.97131,405.85211 C 723.46783,407.01966 723.72952,408.30798 723.75638,409.71707 L 723.75638,416.46061 C 723.75636,417.37318 723.84359,418.29244 724.01807,419.21842 C 724.19251,420.13098 724.40723,420.83553 724.66223,421.33207 M 713.69139,418.63465 C 715.00654,418.63465 716.30828,418.21192 717.59661,417.36646 C 718.88491,416.52101 719.87799,415.52122 720.57585,414.36709 L 720.57585,411.64955 C 719.44855,411.66298 718.43534,411.70324 717.53622,411.77033 C 716.65049,411.83744 715.70438,411.95822 714.69789,412.13267 C 713.69138,412.30713 712.85263,412.53527 712.18164,412.81709 C 711.51064,413.09891 710.95371,413.48809 710.51085,413.98462 C 710.06799,414.48117 709.84656,415.06494 709.84657,415.73593 C 709.84656,416.43378 710.16864,417.09136 710.8128,417.70867 C 711.45696,418.32599 712.41649,418.63465 713.69139,418.63465 M 732.65381,403.91963 C 734.08974,402.30925 735.73369,401.17527 737.58566,400.51767 L 741.59153,403.31573 C 740.43739,403.31575 739.39063,403.43653 738.45125,403.67807 C 737.51184,403.90623 736.74019,404.20147 736.1363,404.56379 C 735.53239,404.91273 735.0023,405.33546 734.54603,405.83198 C 734.08974,406.32854 733.74754,406.80494 733.5194,407.26121 C 733.29126,407.7175 733.10338,408.20733 732.95576,408.7307 C 732.82156,409.24067 732.73433,409.64998 732.69407,409.95863 C 732.66723,410.2673 732.65381,410.56254 732.65381,410.84435 L 732.65381,421.33207 L 729.51354,421.33207 L 729.51354,406.919 C 729.51353,405.91252 729.41959,404.77182 729.23172,403.4969 C 729.05725,402.22202 728.84924,401.34973 728.60769,400.88001 L 732.13043,400.88001 C 732.47935,401.84626 732.65381,402.85947 732.65381,403.91963 M 761.54034,421.33207 L 758.03773,421.33207 C 757.58143,420.31215 757.38684,419.37946 757.45396,418.534 C 755.36043,420.62752 753.06561,421.67428 750.5695,421.67428 C 749.38854,421.67428 748.33507,421.49311 747.4091,421.13077 C 746.48311,420.76843 745.74501,420.29202 745.1948,419.70154 C 744.658,419.11106 744.24869,418.48032 743.96687,417.80932 C 743.69847,417.12491 743.56427,416.43378 743.56427,415.73593 C 743.56427,415.01126 743.67834,414.35368 743.90648,413.76319 C 744.13462,413.1593 744.42315,412.64263 744.77207,412.21319 C 745.12099,411.77034 745.58397,411.38116 746.16104,411.04565 C 746.73809,410.69674 747.28831,410.41492 747.8117,410.20019 C 748.34849,409.98548 748.99936,409.7976 749.76431,409.63655 C 750.54266,409.47552 751.20694,409.36145 751.75717,409.29434 C 752.3208,409.21383 753.01193,409.15344 753.83056,409.11317 C 754.64917,409.07292 755.2732,409.05279 755.70265,409.05278 C 756.13208,409.03937 756.69571,409.03266 757.39357,409.03265 C 757.20567,407.35516 756.58835,406.02659 755.54161,405.04691 C 754.50826,404.06727 753.34072,403.57744 752.03899,403.57742 C 751.48876,403.57744 750.95867,403.66467 750.44872,403.83911 C 749.93876,404.00017 749.51603,404.20818 749.18054,404.46314 C 748.85845,404.70472 748.54308,404.97312 748.23443,405.26834 C 747.93918,405.55018 747.71775,405.81187 747.57014,406.05341 C 747.42251,406.28157 747.28831,406.46274 747.16754,406.59692 L 744.55064,404.98652 C 744.7922,404.6242 744.9935,404.33567 745.15454,404.12093 C 745.329,403.90623 745.66449,403.54389 746.16104,403.03391 C 746.67099,402.52397 747.16753,402.11466 747.65066,401.80598 C 748.14719,401.49734 748.79135,401.21553 749.58314,400.96053 C 750.37491,400.69215 751.19352,400.55795 752.03899,400.55793 C 753.126,400.55795 754.17276,400.76596 755.17927,401.18196 C 756.19917,401.59799 757.10502,402.18847 757.89682,402.95339 C 758.702,403.70493 759.35287,404.67117 759.84943,405.85211 C 760.34595,407.01966 760.60764,408.30798 760.6345,409.71707 L 760.6345,416.46061 C 760.63448,417.37318 760.72171,418.29244 760.89619,419.21842 C 761.07063,420.13098 761.28535,420.83553 761.54034,421.33207 M 750.5695,418.63465 C 751.88465,418.63465 753.18639,418.21192 754.47472,417.36646 C 755.76303,416.52101 756.7561,415.52122 757.45396,414.36709 L 757.45396,411.64955 C 756.32666,411.66298 755.31346,411.70324 754.41433,411.77033 C 753.5286,411.83744 752.58249,411.95822 751.576,412.13267 C 750.5695,412.30713 749.73075,412.53527 749.05976,412.81709 C 748.38875,413.09891 747.83182,413.48809 747.38897,413.98462 C 746.9461,414.48117 746.72467,415.06494 746.72468,415.73593 C 746.72467,416.43378 747.04675,417.09136 747.69092,417.70867 C 748.33507,418.32599 749.2946,418.63465 750.5695,418.63465"
       id="text10453" />
    <text
       xml:space="preserve"
       style="font-size:40px;font-style:normal;font-weight:normal;fill:#000000;fill-opacity:1;stroke:none;stroke-width:1px;stroke-linecap:butt;stroke-linejoin:miter;stroke-opacity:1;font-family:Bitstream Vera Sans"
       x="557"
       y="502.36218"
       id="text2391"><tspan
         sodipodi:role="line"
         id="tspan2393"
         x="557"
         y="502.36218" /></text>
  </g>
</svg>
